:SAMPLES-PER-SECOND 30
:FULLY-SPECIFIED
:DEGREES
37
root  34.87963038 36.55930166 -14.56297326 9.445102692 -4.100863457 3.105787516
lowerback  -8.822799683 -0.2581059635 -0.3875364959
upperback  -3.759959936 0.1484249979 -3.181083918
thorax  1.059489965 0.2285670042 -3.054840088
lowerneck  -14.14190006 -5.322889805 -4.371560097
upperneck  14.14319992 -7.314929962 6.752079964
head  7.07159996 -3.085149765 2.148550034
lclavicle  0 -4.497500157e-015 -2.743230041e-014
lhumerus  -48.51779938 31.11730003 62.69900131
lradius  0.00954947155 -6.507048965e-006 29.55139923
lwrist  3.192251654e-007 -3.790274832e-007 -28.56459999
lhand  -3.526086392e-031 -36.89830017 -10.55959988
lfingers  90 7.125020027 -90
lthumb  94.7907486 -25.39760971 101.056694
rclavicle  0 -4.497500157e-015 -2.743230041e-014
rhumerus  -46.66949844 -27.28149796 -57.53089905
rradius  -5.16745672e-007 2.214343908e-008 67.61990356
rwrist  0.0006954420824 -0.004670973402 -167.1410065
rhand  -3.020371161e-031 -2.198319912 -7.641699791
rfingers  -90 -7.125020027 -90
rthumb  -86.4815979 -8.039988518 -66.26945496
rfemur  -12.11230755 15.60877228 12.93190384
rtibia  -0.4359939694 -0.7063445449 19.54880333
rfoot  0.5277240276 -21.48932838 -36.55241394
rtoes  4.073237419 19.61232185 -101.9865646
lfemur  -7.753881931 -15.77926159 -20.10457611
ltibia  3.113191843 0.1401651204 13.24326229
lfoot  0.3725288212 -24.8441925 35.75253296
ltoes  -8.701386452 -18.07813835 -116.252449
38
root  34.87322349 36.56132315 -14.55823493 9.519533157 -4.018197536 3.10463953
lowerback  -8.784859657 -0.2930559814 -0.3881705403
upperback  -3.726130009 0.09831929952 -3.178915977
thorax  1.071059942 0.2021649927 -3.060790062
lowerneck  -14.08959961 -5.353710175 -4.431600094
upperneck  14.0656004 -7.348229885 6.780869961
head  7.042819977 -3.105349779 2.165030003
lclavicle  0 -4.497500157e-015 -2.743230041e-014
lhumerus  -48.52939987 31.16550064 62.64979935
lradius  0.00954947155 -6.507048965e-006 29.52529907
lwrist  3.192251654e-007 -3.790274832e-007 -28.62750053
lhand  -3.519205588e-031 -36.92210007 -10.63910007
lfingers  90 7.125020027 -90
lthumb  94.81878662 -25.47488403 101.089386
rclavicle  0 -4.497500157e-015 -2.743230041e-014
rhumerus  -46.20119858 -26.76919937 -57.81010056
rradius  -5.16745672e-007 2.214343908e-008 69.12270355
rwrist  0.0006954420824 -0.004670973402 -167.4640045
rhand  -3.008721032e-031 -2.290750027 -7.815090179
rfingers  -90 -7.125020027 -90
rthumb  -86.56887817 -7.876216888 -66.36922455
rfemur  -12.20294285 15.56616306 12.9517498
rtibia  -0.4533884823 -0.6800990105 19.60175323
rfoot  0.5048871636 -21.43515015 -36.58611298
rtoes  4.099548817 19.61231995 -102.0650177
lfemur  -7.777332306 -15.76652527 -20.09307861
ltibia  3.170424223 0.1738069504 13.14913177
lfoot  0.3498288393 -24.83278465 35.65120316
ltoes  -8.699289322 -18.07798767 -116.2456894
39
root  34.87932701 36.56270185 -14.55506903 9.456939697 -4.115073681 3.104181767
lowerback  -8.852379799 -0.2719070017 -0.4283070564
upperback  -3.744489908 0.1336359978 -3.176154375
thorax  1.091089964 0.2214999944 -3.026959896
lowerneck  -14.02770042 -5.388539791 -4.463240147
upperneck  14.00259972 -7.387320042 6.769820213
head  7.014750004 -3.130230188 2.163569927
lclavicle  0 -4.497500157e-015 -2.743230041e-014
lhumerus  -48.55559921 31.19179916 62.60810089
lradius  0.00954947155 -6.507048965e-006 29.5114994
lwrist  3.192251654e-007 -3.790274832e-007 -28.66740036
lhand  -3.521050021e-031 -36.89720154 -10.62040043
lfingers  90 7.125020027 -90
lthumb  94.80313873 -25.45737267 101.0610275
rclavicle  0 -4.497500157e-015 -2.743230041e-014
rhumerus  -45.80540085 -26.35180092 -57.98160172
rradius  -5.16745672e-007 2.214343908e-008 70.68979645
rwrist  0.0006954420824 -0.004670973402 -167.9179993
rhand  -3.013718639e-031 -1.75387001 -7.743070126
rfingers  -90 -7.125020027 -90
rthumb  -86.44065857 -7.971547604 -65.84251404
rfemur  -12.11366749 15.60985756 12.92684174
rtibia  -0.4326111972 -0.728849113 19.53946304
rfoot  0.5465548635 -21.52752304 -36.50828552
rtoes  4.082719326 19.61229897 -102.0148315
lfemur  -7.688254833 -15.72491837 -20.15036964
ltibia  3.181928396 0.1302266866 13.13585758
lfoot  0.3526429832 -24.76185989 35.69032669
ltoes  -8.696739197 -18.07457352 -116.2374725
40
root  34.87702918 36.5624976 -14.54985161 9.488631248 -4.120349407 3.104326248
lowerback  -8.86384964 -0.2770199776 -0.4405913949
upperback  -3.712929964 0.1258639991 -3.172940016
thorax  1.129690051 0.2168000042 -3.017080069
lowerneck  -14.00349998 -5.432929993 -4.49932003
upperneck  13.94449997 -7.43917942 6.7636199
head  6.995930195 -3.160300255 2.16215992
lclavicle  0 -4.497500157e-015 -2.743230041e-014
lhumerus  -48.52719879 31.21649933 62.60609818
lradius  0.00954947155 -6.507048965e-006 29.49550056
lwrist  3.192251654e-007 -3.790274832e-007 -28.73539925
lhand  -3.519945139e-031 -36.87879944 -10.63630009
lfingers  90 7.125020027 -90
lthumb  94.79788208 -25.47358322 101.0427628
rclavicle  0 -4.497500157e-015 -2.743230041e-014
rhumerus  -45.31650162 -25.91889954 -58.16529846
rradius  -5.16745672e-007 2.214343908e-008 72.31980133
rwrist  0.0006954420824 -0.004670973402 -168.2449951
rhand  -3.004457162e-031 -1.741930008 -7.881420135
rfingers  -90 -7.125020027 -90
rthumb  -86.49563599 -7.845932007 -65.83870697
rfemur  -12.14130402 15.62347794 12.92233276
rtibia  -0.4327431321 -0.7161020637 19.53697586
rfoot  0.5344249606 -21.49178696 -36.55415726
rtoes  4.060878277 19.61225319 -101.9497223
lfemur  -7.662760258 -15.67488575 -20.16527176
ltibia  3.234992504 0.1728192866 13.0529623
lfoot  0.3779147565 -24.8073616 35.71427917
ltoes  -8.689574242 -18.07260323 -116.214386
